<svg xmlns="http://www.w3.org/2000/svg" viewBox="0 0 1600 686" width="1600" height="686" role="presentation"><rect width="1600" height="686" fill="#ecece6"/><line x1="351" y1="11.1" x2="1249" y2="11.1" stroke="#111111" stroke-opacity="0.22" stroke-width="1"/><line x1="47" y1="33.2" x2="1553" y2="33.2" stroke="#111111" stroke-opacity="0.22" stroke-width="1"/><line x1="157" y1="55.3" x2="1443" y2="55.3" stroke="#111111" stroke-opacity="0.22" stroke-width="1"/><line x1="161" y1="77.5" x2="1439" y2="77.5" stroke="#111111" stroke-opacity="0.22" stroke-width="1"/><line x1="291" y1="99.6" x2="1309" y2="99.6" stroke="#111111" stroke-opacity="0.22" stroke-width="1"/><line x1="351" y1="121.7" x2="1249" y2="121.7" stroke="#111111" stroke-opacity="0.22" stroke-width="1"/><line x1="330" y1="143.8" x2="1270" y2="143.8" stroke="#111111" stroke-opacity="0.22" stroke-width="1"/><line x1="56" y1="166.0" x2="1544" y2="166.0" stroke="#111111" stroke-opacity="0.22" stroke-width="1"/><line x1="335" y1="188.1" x2="1265" y2="188.1" stroke="#111111" stroke-opacity="0.22" stroke-width="1"/><line x1="155" y1="210.2" x2="1445" y2="210.2" stroke="#111111" stroke-opacity="0.22" stroke-width="1"/><line x1="348" y1="232.4" x2="1252" y2="232.4" stroke="#111111" stroke-opacity="0.22" stroke-width="1"/><line x1="219" y1="254.5" x2="1381" y2="254.5" stroke="#111111" stroke-opacity="0.22" stroke-width="1"/><line x1="269" y1="276.6" x2="1331" y2="276.6" stroke="#111111" stroke-opacity="0.22" stroke-width="1"/><line x1="191" y1="298.7" x2="1409" y2="298.7" stroke="#111111" stroke-opacity="0.22" stroke-width="1"/><line x1="117" y1="320.9" x2="1483" y2="320.9" stroke="#111111" stroke-opacity="0.22" stroke-width="1"/><line x1="312" y1="343.0" x2="1288" y2="343.0" stroke="#111111" stroke-opacity="0.22" stroke-width="1"/><line x1="250" y1="365.1" x2="1350" y2="365.1" stroke="#1f4d4a" stroke-opacity="1" stroke-width="3"/><line x1="152" y1="387.3" x2="1448" y2="387.3" stroke="#111111" stroke-opacity="0.22" stroke-width="1"/><line x1="76" y1="409.4" x2="1524" y2="409.4" stroke="#111111" stroke-opacity="0.22" stroke-width="1"/><line x1="273" y1="431.5" x2="1327" y2="431.5" stroke="#111111" stroke-opacity="0.22" stroke-width="1"/><line x1="81" y1="453.6" x2="1519" y2="453.6" stroke="#111111" stroke-opacity="0.22" stroke-width="1"/><line x1="325" y1="475.8" x2="1275" y2="475.8" stroke="#111111" stroke-opacity="0.22" stroke-width="1"/><line x1="243" y1="497.9" x2="1357" y2="497.9" stroke="#111111" stroke-opacity="0.22" stroke-width="1"/><line x1="214" y1="520.0" x2="1386" y2="520.0" stroke="#111111" stroke-opacity="0.22" stroke-width="1"/><line x1="316" y1="542.2" x2="1284" y2="542.2" stroke="#111111" stroke-opacity="0.22" stroke-width="1"/><line x1="158" y1="564.3" x2="1442" y2="564.3" stroke="#111111" stroke-opacity="0.22" stroke-width="1"/><line x1="297" y1="586.4" x2="1303" y2="586.4" stroke="#111111" stroke-opacity="0.22" stroke-width="1"/><line x1="286" y1="608.5" x2="1314" y2="608.5" stroke="#111111" stroke-opacity="0.22" stroke-width="1"/><line x1="109" y1="630.7" x2="1491" y2="630.7" stroke="#111111" stroke-opacity="0.22" stroke-width="1"/><line x1="93" y1="652.8" x2="1507" y2="652.8" stroke="#111111" stroke-opacity="0.22" stroke-width="1"/><line x1="255" y1="674.9" x2="1345" y2="674.9" stroke="#111111" stroke-opacity="0.22" stroke-width="1"/></svg>
