<svg xmlns="http://www.w3.org/2000/svg" viewBox="0 0 1600 1067" width="1600" height="1067" role="presentation"><rect width="1600" height="1067" fill="#ecece6"/><rect x="116.1" y="105.5" width="160.9" height="258.5" fill="#7a6a52" fill-opacity="1"/><rect x="317.3" y="105.5" width="160.9" height="258.5" fill="#111111" fill-opacity="0.21"/><rect x="518.4" y="105.5" width="160.9" height="258.5" fill="#111111" fill-opacity="0.47"/><rect x="719.5" y="105.5" width="160.9" height="258.5" fill="#111111" fill-opacity="0.17"/><rect x="920.7" y="105.5" width="160.9" height="258.5" fill="#111111" fill-opacity="0.18"/><rect x="1121.8" y="105.5" width="160.9" height="258.5" fill="#111111" fill-opacity="0.50"/><rect x="1323.0" y="105.5" width="160.9" height="258.5" fill="#111111" fill-opacity="0.38"/><rect x="116.1" y="404.2" width="160.9" height="258.5" fill="#111111" fill-opacity="0.37"/><rect x="317.3" y="404.2" width="160.9" height="258.5" fill="#111111" fill-opacity="0.19"/><rect x="518.4" y="404.2" width="160.9" height="258.5" fill="#111111" fill-opacity="0.31"/><rect x="719.5" y="404.2" width="160.9" height="258.5" fill="#111111" fill-opacity="0.41"/><rect x="920.7" y="404.2" width="160.9" height="258.5" fill="#111111" fill-opacity="0.12"/><rect x="1121.8" y="404.2" width="160.9" height="258.5" fill="#111111" fill-opacity="0.43"/><rect x="1323.0" y="404.2" width="160.9" height="258.5" fill="#111111" fill-opacity="0.22"/><rect x="116.1" y="703.0" width="160.9" height="258.5" fill="#111111" fill-opacity="0.41"/><rect x="317.3" y="703.0" width="160.9" height="258.5" fill="#111111" fill-opacity="0.39"/><rect x="518.4" y="703.0" width="160.9" height="258.5" fill="#111111" fill-opacity="0.19"/><rect x="719.5" y="703.0" width="160.9" height="258.5" fill="#111111" fill-opacity="0.15"/><rect x="920.7" y="703.0" width="160.9" height="258.5" fill="#111111" fill-opacity="0.50"/><rect x="1121.8" y="703.0" width="160.9" height="258.5" fill="#111111" fill-opacity="0.46"/><rect x="1323.0" y="703.0" width="160.9" height="258.5" fill="#111111" fill-opacity="0.47"/><rect x="96" y="1020" width="1408" height="1" fill="#111111" fill-opacity="0.2"/></svg>
