<svg xmlns="http://www.w3.org/2000/svg" viewBox="0 0 1600 900" width="1600" height="900" role="presentation"><rect width="1600" height="900" fill="#ecece6"/><line x1="218" y1="15.0" x2="1382" y2="15.0" stroke="#111111" stroke-opacity="0.22" stroke-width="1"/><line x1="352" y1="45.0" x2="1248" y2="45.0" stroke="#111111" stroke-opacity="0.22" stroke-width="1"/><line x1="87" y1="75.0" x2="1513" y2="75.0" stroke="#111111" stroke-opacity="0.22" stroke-width="1"/><line x1="153" y1="105.0" x2="1447" y2="105.0" stroke="#111111" stroke-opacity="0.22" stroke-width="1"/><line x1="181" y1="135.0" x2="1419" y2="135.0" stroke="#111111" stroke-opacity="0.22" stroke-width="1"/><line x1="339" y1="165.0" x2="1261" y2="165.0" stroke="#111111" stroke-opacity="0.22" stroke-width="1"/><line x1="197" y1="195.0" x2="1403" y2="195.0" stroke="#111111" stroke-opacity="0.22" stroke-width="1"/><line x1="182" y1="225.0" x2="1418" y2="225.0" stroke="#111111" stroke-opacity="0.22" stroke-width="1"/><line x1="212" y1="255.0" x2="1388" y2="255.0" stroke="#111111" stroke-opacity="0.22" stroke-width="1"/><line x1="126" y1="285.0" x2="1474" y2="285.0" stroke="#111111" stroke-opacity="0.22" stroke-width="1"/><line x1="351" y1="315.0" x2="1249" y2="315.0" stroke="#111111" stroke-opacity="0.22" stroke-width="1"/><line x1="291" y1="345.0" x2="1309" y2="345.0" stroke="#111111" stroke-opacity="0.22" stroke-width="1"/><line x1="279" y1="375.0" x2="1321" y2="375.0" stroke="#111111" stroke-opacity="0.22" stroke-width="1"/><line x1="125" y1="405.0" x2="1475" y2="405.0" stroke="#111111" stroke-opacity="0.22" stroke-width="1"/><line x1="299" y1="435.0" x2="1301" y2="435.0" stroke="#111111" stroke-opacity="0.22" stroke-width="1"/><line x1="78" y1="465.0" x2="1522" y2="465.0" stroke="#2e4034" stroke-opacity="1" stroke-width="3"/><line x1="299" y1="495.0" x2="1301" y2="495.0" stroke="#111111" stroke-opacity="0.22" stroke-width="1"/><line x1="183" y1="525.0" x2="1417" y2="525.0" stroke="#111111" stroke-opacity="0.22" stroke-width="1"/><line x1="118" y1="555.0" x2="1482" y2="555.0" stroke="#111111" stroke-opacity="0.22" stroke-width="1"/><line x1="231" y1="585.0" x2="1369" y2="585.0" stroke="#111111" stroke-opacity="0.22" stroke-width="1"/><line x1="33" y1="615.0" x2="1567" y2="615.0" stroke="#111111" stroke-opacity="0.22" stroke-width="1"/><line x1="113" y1="645.0" x2="1487" y2="645.0" stroke="#111111" stroke-opacity="0.22" stroke-width="1"/><line x1="61" y1="675.0" x2="1539" y2="675.0" stroke="#111111" stroke-opacity="0.22" stroke-width="1"/><line x1="292" y1="705.0" x2="1308" y2="705.0" stroke="#111111" stroke-opacity="0.22" stroke-width="1"/><line x1="142" y1="735.0" x2="1458" y2="735.0" stroke="#111111" stroke-opacity="0.22" stroke-width="1"/><line x1="212" y1="765.0" x2="1388" y2="765.0" stroke="#111111" stroke-opacity="0.22" stroke-width="1"/><line x1="114" y1="795.0" x2="1486" y2="795.0" stroke="#111111" stroke-opacity="0.22" stroke-width="1"/><line x1="141" y1="825.0" x2="1459" y2="825.0" stroke="#111111" stroke-opacity="0.22" stroke-width="1"/><line x1="247" y1="855.0" x2="1353" y2="855.0" stroke="#111111" stroke-opacity="0.22" stroke-width="1"/><line x1="115" y1="885.0" x2="1485" y2="885.0" stroke="#111111" stroke-opacity="0.22" stroke-width="1"/></svg>
