<svg xmlns="http://www.w3.org/2000/svg" viewBox="0 0 1600 686" width="1600" height="686" role="presentation"><rect width="1600" height="686" fill="#ecece6"/><line x1="295" y1="11.8" x2="1305" y2="11.8" stroke="#111111" stroke-opacity="0.22" stroke-width="1"/><line x1="312" y1="35.5" x2="1288" y2="35.5" stroke="#111111" stroke-opacity="0.22" stroke-width="1"/><line x1="67" y1="59.1" x2="1533" y2="59.1" stroke="#111111" stroke-opacity="0.22" stroke-width="1"/><line x1="144" y1="82.8" x2="1456" y2="82.8" stroke="#111111" stroke-opacity="0.22" stroke-width="1"/><line x1="111" y1="106.4" x2="1489" y2="106.4" stroke="#111111" stroke-opacity="0.22" stroke-width="1"/><line x1="155" y1="130.1" x2="1445" y2="130.1" stroke="#111111" stroke-opacity="0.22" stroke-width="1"/><line x1="126" y1="153.8" x2="1474" y2="153.8" stroke="#111111" stroke-opacity="0.22" stroke-width="1"/><line x1="129" y1="177.4" x2="1471" y2="177.4" stroke="#111111" stroke-opacity="0.22" stroke-width="1"/><line x1="341" y1="201.1" x2="1259" y2="201.1" stroke="#8a3a3a" stroke-opacity="1" stroke-width="3"/><line x1="83" y1="224.7" x2="1517" y2="224.7" stroke="#111111" stroke-opacity="0.22" stroke-width="1"/><line x1="205" y1="248.4" x2="1395" y2="248.4" stroke="#111111" stroke-opacity="0.22" stroke-width="1"/><line x1="83" y1="272.0" x2="1517" y2="272.0" stroke="#111111" stroke-opacity="0.22" stroke-width="1"/><line x1="264" y1="295.7" x2="1336" y2="295.7" stroke="#111111" stroke-opacity="0.22" stroke-width="1"/><line x1="308" y1="319.3" x2="1292" y2="319.3" stroke="#111111" stroke-opacity="0.22" stroke-width="1"/><line x1="120" y1="343.0" x2="1480" y2="343.0" stroke="#111111" stroke-opacity="0.22" stroke-width="1"/><line x1="109" y1="366.7" x2="1491" y2="366.7" stroke="#111111" stroke-opacity="0.22" stroke-width="1"/><line x1="95" y1="390.3" x2="1505" y2="390.3" stroke="#111111" stroke-opacity="0.22" stroke-width="1"/><line x1="310" y1="414.0" x2="1290" y2="414.0" stroke="#111111" stroke-opacity="0.22" stroke-width="1"/><line x1="75" y1="437.6" x2="1525" y2="437.6" stroke="#111111" stroke-opacity="0.22" stroke-width="1"/><line x1="94" y1="461.3" x2="1506" y2="461.3" stroke="#111111" stroke-opacity="0.22" stroke-width="1"/><line x1="240" y1="484.9" x2="1360" y2="484.9" stroke="#111111" stroke-opacity="0.22" stroke-width="1"/><line x1="115" y1="508.6" x2="1485" y2="508.6" stroke="#111111" stroke-opacity="0.22" stroke-width="1"/><line x1="196" y1="532.2" x2="1404" y2="532.2" stroke="#111111" stroke-opacity="0.22" stroke-width="1"/><line x1="250" y1="555.9" x2="1350" y2="555.9" stroke="#111111" stroke-opacity="0.22" stroke-width="1"/><line x1="222" y1="579.6" x2="1378" y2="579.6" stroke="#111111" stroke-opacity="0.22" stroke-width="1"/><line x1="260" y1="603.2" x2="1340" y2="603.2" stroke="#111111" stroke-opacity="0.22" stroke-width="1"/><line x1="240" y1="626.9" x2="1360" y2="626.9" stroke="#111111" stroke-opacity="0.22" stroke-width="1"/><line x1="304" y1="650.5" x2="1296" y2="650.5" stroke="#111111" stroke-opacity="0.22" stroke-width="1"/><line x1="52" y1="674.2" x2="1548" y2="674.2" stroke="#111111" stroke-opacity="0.22" stroke-width="1"/></svg>
