<svg xmlns="http://www.w3.org/2000/svg" viewBox="0 0 1600 900" width="1600" height="900" role="presentation"><rect width="1600" height="900" fill="#ecece6"/><g stroke="#111111" stroke-opacity="0.06" stroke-width="1"><line x1="133.3" y1="0" x2="133.3" y2="900"/><line x1="266.7" y1="0" x2="266.7" y2="900"/><line x1="400.0" y1="0" x2="400.0" y2="900"/><line x1="533.3" y1="0" x2="533.3" y2="900"/><line x1="666.7" y1="0" x2="666.7" y2="900"/><line x1="800.0" y1="0" x2="800.0" y2="900"/><line x1="933.3" y1="0" x2="933.3" y2="900"/><line x1="1066.7" y1="0" x2="1066.7" y2="900"/><line x1="1200.0" y1="0" x2="1200.0" y2="900"/><line x1="1333.3" y1="0" x2="1333.3" y2="900"/><line x1="1466.7" y1="0" x2="1466.7" y2="900"/></g><rect x="0" y="0" width="1600" height="241" fill="#e2e2da"/><rect x="0" y="241" width="1600" height="196" fill="#ecece6"/><rect x="0" y="437" width="1600" height="234" fill="#e2e2da"/><rect x="177" y="520" width="763" height="2" fill="#8a3a3a"/><rect x="1283" y="390" width="137" height="137" fill="#111111" fill-opacity="0.82"/></svg>
